Coordinates
version=1
nRows=26
nColumns=24
inDegrees=yes

Units are S.I. units (second, meters, Newtons, ...)
Angles are in degrees.

endheader
time	pelvis_tilt	pelvis_list	pelvis_rotation	pelvis_tx	pelvis_ty	pelvis_tz	hip_flexion_r	hip_adduction_r	hip_rotation_r	knee_angle_r	ankle_angle_r	subtalar_angle_r	mtp_angle_r	hip_flexion_l	hip_adduction_l	hip_rotation_l	knee_angle_l	ankle_angle_l	subtalar_angle_l	mtp_angle_l	lumbar_extension	lumbar_bending	lumbar_rotation
      0.55800000	      2.11115394	      2.72724030	     -3.79080346	     -0.76968132	      0.98447992	      0.27324000	     19.93044055	     -2.33400619	     -1.11824869	      4.34596296	     -1.33141631	     -3.75672600	      3.18647595	    -23.01876656	      7.34202223	      8.88679569	      2.60931464	     12.10908228	    -13.93161176	     -7.51979688	    -14.22324125	      6.60798167	     -9.05589637
      0.56216667	      2.06492718	      2.57173259	     -3.77135312	     -0.76405411	      0.98359353	      0.27362608	     19.93080335	     -2.13863323	     -0.75010938	      4.18211823	     -1.61900664	     -4.24976517	      3.21235587	    -23.09873303	      7.19628533	      8.78084219	      2.11734045	     12.45150563	    -13.73832077	     -7.48902390	    -14.17965563	      6.82057274	     -9.01781822
      0.56633333	      2.02028794	      2.38954980	     -3.76738148	     -0.75838286	      0.98275895	      0.27405055	     19.93970122	     -1.91030751	     -0.36520700	      3.92610957	     -1.92330575	     -4.77421032	      3.23777760	    -23.16096386	      7.03098696	      8.59342321	      1.57978758	     12.81838856	    -13.45115551	     -7.44564948	    -14.14013667	      7.05735158	     -8.95330628
      0.57050000	      1.97512474	      2.18556628	     -3.76709994	     -0.75267857	      0.98197655	      0.27449115	     19.95806986	     -1.65768931	      0.02061427	      3.58703730	     -2.26182340	     -5.34153109	      3.26072583	    -23.20747858	      6.84595408	      8.37299722	      1.00666198	     13.19039929	    -13.12591336	     -7.38954315	    -14.10162154	      7.32131327	     -8.88460545
      0.57466667	      1.93179618	      1.96028400	     -3.77105037	     -0.74694201	      0.98124709	      0.27495097	     19.98889777	     -1.37998878	      0.38839511	      3.16252832	     -2.64091186	     -5.94094745	      3.27872016	    -23.24285605	      6.64287254	      8.12904420	      0.39865489	     13.54479091	    -12.81056430	     -7.32306624	    -14.06463321	      7.61034208	     -8.80357245
      0.57883333	      1.89691698	      1.71643931	     -3.77895626	     -0.74117425	      0.98057935	      0.27542962	     20.01551781	     -1.08198766	      0.76013136	      2.67693692	     -3.02901919	     -6.55621565	      3.29842772	    -23.26135152	      6.42417914	      7.83339740	     -0.26544873	     13.91905752	    -12.44148306	     -7.22014584	    -14.04202343	      7.92676201	     -8.71495342
      0.58300000	      1.80843423	      1.46600726	     -3.79245288	     -0.73535879	      0.97989140	      0.27593698	     20.12645652	     -0.76695319	      1.09349124	      2.09695505	     -3.49258586	     -7.20950090	      3.30233950	    -23.22756355	      6.19681752	      7.58584104	     -0.92446867	     14.20838745	    -12.16044549	     -7.13245931	    -13.94100668	      8.24759521	     -8.61639007
      0.58716667	      1.75518478	      1.19028413	     -3.81395525	     -0.72951965	      0.97929807	      0.27648392	     20.19712091	     -0.42326272	      1.43245568	      1.48490711	     -3.96614379	     -7.88302500	      3.29933151	    -23.20547951	      5.94858068	      7.27350121	     -1.63912744	     14.51230206	    -11.82104444	     -7.02202866	    -13.89565850	      8.59614655	     -8.50652717
      0.59133333	      1.69804090	      0.90061692	     -3.84265745	     -0.72364179	      0.97873832	      0.27705416	     20.28932944	     -0.06091598	      1.73159722	      0.80673198	     -4.45432531	     -8.53158634	      3.28840669	    -23.17281961	      5.68839490	      6.94535832	     -2.37316879	     14.78451121	    -11.49700227	     -6.89622613	    -13.83795596	      8.96010909	     -8.38763237
      0.59550000	      1.62199290	      0.60873828	     -3.87551495	     -0.71774364	      0.97820120	      0.27764715	     20.42088928	      0.30861517	      1.99815523	      0.06796665	     -4.94444041	     -9.15918319	      3.26916961	    -23.09804081	      5.42661548	      6.62292887	     -3.15333334	     15.02607823	    -11.19777029	     -6.75628808	    -13.76668683	      9.32390784	     -8.26406252
      0.59966667	      1.55429036	      0.30654834	     -3.91579877	     -0.71181476	      0.97771770	      0.27826530	     20.55177025	      0.69190676	      2.24325054	     -0.70897899	     -5.42864515	     -9.77025372	      3.24097739	    -23.01607807	      5.15773688	      6.27823456	     -3.96965030	     15.23022032	    -10.90181746	     -6.58924797	    -13.70001058	      9.70530672	     -8.13326479
      0.60383333	      1.48155092	      0.00086048	     -3.96152104	     -0.70586057	      0.97727222	      0.27891692	     20.70270117	      1.08318903	      2.44660151	     -1.53261115	     -5.89855770	    -10.34372784	      3.20425380	    -22.91311372	      4.88547192	      5.93706702	     -4.81729930	     15.39553894	    -10.64116679	     -6.39742954	    -13.62866223	     10.08365466	     -7.99693606
      0.60800000	      1.44899456	     -0.33660054	     -4.01645542	     -0.69987486	      0.97691514	      0.27960269	     20.81350834	      1.50817214	      2.60930856	     -2.38212732	     -6.32843680	    -10.85287008	      3.12201421	    -22.83188904	      4.58213133	      5.50736353	     -5.71952511	     15.58303449	    -10.24497987	     -5.94690025	    -13.62068073	     10.50007155	     -7.87349327
      0.61216667	      1.33409803	     -0.61927860	     -4.06603928	     -0.69388921	      0.97649964	      0.28028857	     21.04524736	      1.88135084	      2.74777888	     -3.30096713	     -6.72426293	    -11.34124888	      3.07257288	    -22.65603328	      4.33483868	      5.26737873	     -6.61686642	     15.58112284	    -10.20628550	     -5.72561063	    -13.49240988	     10.84403050	     -7.71901822
      0.61633333	      1.30399579	     -0.96290558	     -4.12449528	     -0.68785979	      0.97623399	      0.28101707	     21.16281403	      2.31477203	      2.85746593	     -4.19598692	     -7.06812409	    -11.78738015	      2.95037371	    -22.53304048	      4.02361412	      4.83260299	     -7.61047828	     15.66088690	     -9.87586926	     -5.13088424	    -13.48056876	     11.27489802	     -7.59029912
      0.62050000	      1.18846258	     -1.24523999	     -4.19238379	     -0.68182875	      0.97589865	      0.28175398	     21.41856173	      2.69328594	      2.92512293	     -5.18530357	     -7.34979687	    -12.14649976	      2.90067117	    -22.33340301	      3.78453735	      4.62790033	     -8.54873720	     15.52528588	     -9.95392064	     -4.91397631	    -13.35058315	     11.61650015	     -7.43221638
      0.62466667	      1.11582245	     -1.55290166	     -4.25922419	     -0.67577712	      0.97565167	      0.28252602	     21.62729435	      3.09681564	      2.96525368	     -6.19085285	     -7.56394602	    -12.51416696	      2.80301802	    -22.13724398	      3.51069905	      4.30204543	     -9.58342024	     15.48225236	     -9.75823740	     -4.44658419	    -13.27997332	     11.99707218	     -7.27770121
      0.62883333	      1.10166848	     -1.91180169	     -4.34404156	     -0.66967826	      0.97552029	      0.28334285	     21.73896765	      3.55155732	      2.99541084	     -7.14411211	     -7.68491758	    -12.71573585	      2.39591991	    -21.97131744	      3.18257267	      3.79981424	    -10.69395146	     15.37470873	     -9.47158063	     -2.42688845	    -13.28352854	     12.43938562	     -7.17004399
      0.63300000	      0.99217075	     -2.16881072	     -4.39761948	     -0.66361486	      0.97533229	      0.28410542	     22.00167914	      3.89869625	      2.98734718	     -8.19512281	     -7.72959978	    -13.00575790	      2.33448690	    -21.71499211	      2.96989747	      3.73636788	    -11.74004385	     15.00828421	     -9.77869714	     -2.15157893	    -13.16192474	     12.74575827	     -6.99941157
      0.63716667	      0.93169954	     -2.46564200	     -4.47331388	     -0.65750454	      0.97523924	      0.28491644	     22.17894867	      4.28926336	      2.99754169	     -9.19866316	     -7.65639632	    -13.16800849	      2.28291194	    -21.46575432	      2.71151893	      3.45270458	    -12.88769422	     14.67150779	     -9.85017517	     -1.88898134	    -13.08351547	     13.11467086	     -6.86013567
      0.64133333	      0.87257457	     -2.76099044	     -4.54528328	     -0.65139637	      0.97517784	      0.28575053	     22.36548774	      4.67735685	      2.96908843	    -10.23580777	     -7.50666536	    -13.29597863	      2.21791935	    -21.18774737	      2.44609292	      3.16292100	    -14.08915868	     14.31547591	     -9.86280815	     -1.53755732	    -13.02248839	     13.47538973	     -6.71811121
      0.64550000	      0.87022501	     -3.07986775	     -4.61459819	     -0.64527090	      0.97523092	      0.28661614	     22.47334954	      5.08985235	      2.94735513	    -11.25481346	     -7.28070766	    -13.46326072	      1.20457222	    -20.95812342	      2.14942850	      2.84106626	    -15.29762995	     13.80165631	     -9.87804110	      3.69923654	    -13.04132379	     13.85190216	     -6.62949004
      0.64966667	      0.82467525	     -3.38536438	     -4.68351780	     -0.63911173	      0.97528614	      0.28746909	     22.60774999	      5.48665348	      2.92099681	    -12.24136111	     -6.99705522	    -13.53595516	      1.19495908	    -20.65211780	      1.86952580	      2.58348331	    -16.56331200	     13.24918933	    -10.00852144	      3.74973604	    -12.99699485	     14.21313013	     -6.47901626
      0.65383333	      0.79293889	     -3.65936726	     -4.74719402	     -0.63298194	      0.97537328	      0.28831341	     22.74460622	      5.84631097	      2.86197684	    -13.26749706	     -6.60462206	    -13.56132298	      1.17096820	    -20.31323917	      1.61057981	      2.28922845	    -17.90249404	     12.68560052	    -10.03485925	      3.89562207	    -12.94924383	     14.54608429	     -6.34490632
      0.65800000	      0.77484544	     -3.94877562	     -4.80861425	     -0.62682698	      0.97552694	      0.28919117	     22.83258599	      6.22382378	      2.82816937	    -14.23716043	     -6.16358305	    -13.58878412	      1.13574875	    -19.96378314	      1.32553067	      1.97944591	    -19.27706946	     12.01761591	    -10.06528199	      4.11330290	    -12.92844630	     14.88137418	     -6.23118847
      0.66216667	      0.82313799	     -4.24385366	     -4.84441630	     -0.62066373	      0.97580673	      0.29001237	     22.84863368	      6.58381096	      2.70741998	    -15.21923213	     -5.59203645	    -13.44803917	      0.31945992	    -19.66801121	      1.02287903	      1.67422169	    -20.64772496	     11.15448117	    -10.10022060	      8.20989381	    -12.97942770	     15.25020456	     -6.23078480
